# xmcd
#
# Track frame offsets: 
#        150
#        14687
#        28382
#        41655
#        55442
#        68357
#        83042
#        96892
#        109070
#        120987
#        134177
#        147985
#        161015
#        171552
#        184265
#        196480
#        208912
#        221580
#        234075
#        246105
#
# Disc length: 3542 seconds
#
# Revision: 5
# Processed by: cddbd v1.5.2PL0 Copyright (c) Steve Scherf et al.
# Submitted via: ExactAudioCopy v1.1
#
DISCID=2f0dd414
DTITLE=Various Artist - Legends Of The Blues - Volume 1 (Roots N' Blu
DTITLE=es)
DYEAR=1990
DGENRE=Blues
TTITLE0=Bessie Smith - St. Louis Blues (mono)
TTITLE1=Blind Lemon Jefferson - Match Box Blues (mono)
TTITLE2=Mississippi John Hurt - Ain't No Tellin' (mono)
TTITLE3=Blind Willie Johnson - Lord, I Just Can't Keep From Cryin' (mo
TTITLE3=no)
TTITLE4=Bo Carter - Pigmeat Is What I Crave (mono)
TTITLE5=Blind Willie McTell - Southern Can is Mine (mono)
TTITLE6=Lonnie Johnson - Low Down St. Louis Blues (mono)
TTITLE7=Charley Patton - Revenue Man Blues (mono)
TTITLE8=Leroy Carr - Stormy Night Blues (mono)
TTITLE9=Josh White - I Believe I'll Make A Change (mono)
TTITLE10=Leadbelly - Fort Worth And Dallas Blues (mono)
TTITLE11=Peetie Wheatstraw - Sweet Home Blues (mono)
TTITLE12=Robert Johnson - Stop Breakin' Down Blues (mono)
TTITLE13=Blind Boy Fuller - Truckin' My Blues Away, #2 (mono)
TTITLE14=Big Bill Broonzy - Spreadin' Snakes Blues (mono)
TTITLE15=Memphis Minnie - Nothing In Ramblin' (mono)
TTITLE16=Bukka White - Fixin' To Die Blues (mono)
TTITLE17=Muddy Waters - Hard Day Blues (mono)
TTITLE18=Big Joe Williams - Don't You Leave Me Here (mono)
TTITLE19=Son House - Death Letter (mono)
EXTD=YEAR: 1990 ID3G:   0
EXTT0=Bessie Smith\n
EXTT1=Blind Lemon Jefferson\n
EXTT2=Mississippi John Hurt\n
EXTT3=Blind Willie Johnson\n
EXTT4=Bo Carter\n
EXTT5=Blind Willie McTell\n
EXTT6=Lonnie Johnson\n
EXTT7=Charley Patton\n
EXTT8=Leroy Carr\n
EXTT9=Josh White\n
EXTT10=Leadbelly\n
EXTT11=Peetie Wheatstraw\n
EXTT12=Robert Johnson\n
EXTT13=Blinf Boy Fuller\n
EXTT14=Big Bill Bronzy\n
EXTT15=Memphis Minnie\n
EXTT16=Bukka White\n
EXTT17=Muddy Waters\n
EXTT18=Big Joe Williams\n
EXTT19=Son House\n
PLAYORDER=
